<svg xmlns="http://www.w3.org/2000/svg" viewBox="0 0 41.16 38"><g id="Layer_2" data-name="Layer 2"><g id="Layer_1-2" data-name="Layer 1"><path d="M33.65,20.54v7.82A4.39,4.39,0,0,1,29,33.05H13.29a4.38,4.38,0,0,1-4.66-4.67q0-7.86,0-15.71A4.37,4.37,0,0,1,13.25,8H29a4.38,4.38,0,0,1,4.64,4.64Zm-.87.05c0-2.7,0-5.41,0-8.12a3.43,3.43,0,0,0-3.6-3.59h-16A3.44,3.44,0,0,0,9.49,12.5V28.56a3.44,3.44,0,0,0,3.63,3.62h16a3.43,3.43,0,0,0,3.66-3.64C32.79,25.89,32.78,23.24,32.78,20.59Z"/><path d="M2,9.15a1,1,0,0,1-1,1A1,1,0,0,1,1,8.08,1,1,0,0,1,2,9.15Z"/><path d="M8.12,34.43a1,1,0,0,1-2.06,0,1,1,0,0,1,2.06,0Z"/><path d="M40.14,7.14a.94.94,0,0,1-1-1,.94.94,0,0,1,1-1,1,1,0,1,1,0,2Z"/><path d="M32.78,20.59c0,2.65,0,5.3,0,8a3.43,3.43,0,0,1-3.66,3.64h-16a3.44,3.44,0,0,1-3.63-3.62V12.5a3.44,3.44,0,0,1,3.64-3.62h16a3.43,3.43,0,0,1,3.6,3.59C32.79,15.18,32.78,17.89,32.78,20.59ZM21.12,30.93c2.57,0,5.14,0,7.7,0a2.7,2.7,0,0,0,2.7-2.67c0-2.55,0-5.1,0-7.64a.63.63,0,0,0,0-.24,2.88,2.88,0,0,0-.27-.34c-.1.11-.25.2-.29.33a1.86,1.86,0,0,0,0,.53q0,3.47,0,6.93a2.2,2.2,0,0,1-2.51,2.5H13.86a2.21,2.21,0,0,1-2.52-2.5c0-4.85,0-9.71,0-14.56a2.22,2.22,0,0,1,2.54-2.54H26.82c.29,0,.7.15.75-.32a1.28,1.28,0,0,0-.73-.26H13.67a2.74,2.74,0,0,0-2.93,2.94V28a2.74,2.74,0,0,0,2.92,2.94C16.15,30.94,18.64,30.93,21.12,30.93Zm1.24-12.75a2.2,2.2,0,0,0-.69-.34c-.57-.05-1.16,0-1.74,0-.34,0-.51.12-.51.49,0,2.21,0,4.41,0,6.62,0,.37.15.5.5.49.58,0,1.16,0,1.74,0,.42,0,.56-.15.56-.57,0-1.1,0-2.2,0-3.31S22.57,20,23.27,20s1,.48,1,1.48,0,2.25.09,3.37c0,.18.2.49.32.5.75,0,1.51,0,2.39,0-.07-1.84,0-3.61-.23-5.35A2.53,2.53,0,0,0,24,17.79,8.74,8.74,0,0,0,22.36,18.18Zm-6.71,3.44c0,1.06,0,2.12,0,3.18,0,.48.16.65.63.63s1.12,0,1.68,0c.35,0,.51-.13.51-.5,0-2.18,0-4.37,0-6.55,0-.37-.15-.5-.51-.49a14.59,14.59,0,0,1-1.62,0c-.52,0-.72.13-.7.67C15.68,19.57,15.65,20.59,15.65,21.62Zm0-5.61A1.28,1.28,0,0,0,17,17.36,1.35,1.35,0,0,0,18.35,16a1.34,1.34,0,0,0-2.68,0Z" fill="#fff"/><path d="M21.12,30.93c-2.48,0-5,0-7.46,0A2.74,2.74,0,0,1,10.74,28V13.07a2.74,2.74,0,0,1,2.93-2.94H26.84a1.28,1.28,0,0,1,.73.26c-.05.47-.46.32-.75.32H13.88a2.22,2.22,0,0,0-2.54,2.54c0,4.85,0,9.71,0,14.56a2.21,2.21,0,0,0,2.52,2.5H28.42a2.2,2.2,0,0,0,2.51-2.5q0-3.46,0-6.93a1.86,1.86,0,0,1,0-.53c0-.13.19-.22.29-.33a2.88,2.88,0,0,1,.27.34.63.63,0,0,1,0,.24c0,2.54,0,5.09,0,7.64a2.7,2.7,0,0,1-2.7,2.67C26.26,30.94,23.69,30.93,21.12,30.93Z"/><path d="M22.36,18.18A8.74,8.74,0,0,1,24,17.79a2.53,2.53,0,0,1,2.85,2.27c.21,1.74.16,3.51.23,5.35-.88,0-1.64,0-2.39,0-.12,0-.32-.32-.32-.5-.06-1.12-.07-2.25-.09-3.37s-.36-1.48-1-1.48-1.06.5-1.06,1.5,0,2.21,0,3.31c0,.42-.14.59-.56.57-.58,0-1.16,0-1.74,0-.35,0-.5-.12-.5-.49,0-2.21,0-4.41,0-6.62,0-.37.17-.49.51-.49.58,0,1.17,0,1.74,0A2.2,2.2,0,0,1,22.36,18.18Zm4.15,4.55h0c0-.54,0-1.09,0-1.63-.06-1.54-.69-2.4-1.95-2.63a2.12,2.12,0,0,0-2.14.78,1.41,1.41,0,0,1-.48.28,1.7,1.7,0,0,1-.22-.5c0-.87-.69-.42-1.07-.51s-.55.15-.54.56c0,1.7,0,3.41,0,5.11,0,.66.33.65.78.63s.89.1.84-.63c-.05-1,0-2,0-3a1.65,1.65,0,0,1,1.44-1.72A1.52,1.52,0,0,1,25,20.92a3.5,3.5,0,0,1,.06.72c0,.88,0,1.76,0,2.65,0,.37.11.57.52.53a3.84,3.84,0,0,1,.48,0c.4,0,.53-.15.51-.53S26.51,23.25,26.51,22.73Z"/><path d="M15.65,21.62c0-1,0-2.05,0-3.07,0-.54.18-.71.7-.67a14.59,14.59,0,0,0,1.62,0c.36,0,.51.12.51.49,0,2.18,0,4.37,0,6.55,0,.37-.16.51-.51.5-.56,0-1.12,0-1.68,0s-.65-.15-.63-.63C15.67,23.74,15.65,22.68,15.65,21.62Zm.6.06c0,.86,0,1.72,0,2.58,0,.4.11.61.55.56a2.44,2.44,0,0,1,.54,0c.39,0,.52-.13.52-.52q0-2.64,0-5.28c0-.35-.11-.53-.48-.51a3,3,0,0,1-.6,0c-.39,0-.53.13-.53.53C16.26,19.92,16.25,20.8,16.25,21.68Z"/><path d="M15.67,16a1.34,1.34,0,0,1,2.68,0A1.35,1.35,0,0,1,17,17.36,1.28,1.28,0,0,1,15.67,16ZM17,15.37a.66.66,0,0,0-.74.69.64.64,0,0,0,.71.71c.44,0,.74-.17.76-.65A.68.68,0,0,0,17,15.37Z"/><path d="M26.51,22.73c0,.52,0,1,0,1.56s-.11.57-.51.53a3.84,3.84,0,0,0-.48,0c-.41,0-.53-.16-.52-.53,0-.89,0-1.77,0-2.65a3.5,3.5,0,0,0-.06-.72,1.52,1.52,0,0,0-1.81-1.4,1.65,1.65,0,0,0-1.44,1.72c0,1-.05,2,0,3,.05.73-.4.62-.84.63s-.8,0-.78-.63c0-1.7,0-3.41,0-5.11,0-.41.12-.65.54-.56s1-.36,1.07.51a1.7,1.7,0,0,0,.22.5,1.41,1.41,0,0,0,.48-.28,2.12,2.12,0,0,1,2.14-.78c1.26.23,1.89,1.09,1.95,2.63,0,.54,0,1.09,0,1.63Z" fill="#fff"/><path d="M16.25,21.68c0-.88,0-1.76,0-2.64,0-.4.14-.56.53-.53a3,3,0,0,0,.6,0c.37,0,.48.16.48.51q0,2.64,0,5.28c0,.39-.13.56-.52.52a2.44,2.44,0,0,0-.54,0c-.44.05-.56-.16-.55-.56C16.27,23.4,16.25,22.54,16.25,21.68Z" fill="#fff"/><path d="M17,15.37a.68.68,0,0,1,.73.75c0,.48-.32.65-.76.65a.64.64,0,0,1-.71-.71A.66.66,0,0,1,17,15.37Z" fill="#fff"/><path d="M33.11,2.93a1.39,1.39,0,0,1-1.45-1.44A1.4,1.4,0,0,1,33.14,0a1.45,1.45,0,0,1,1.47,1.44A1.45,1.45,0,0,1,33.11,2.93Z"/><path d="M33.47,37.34a.71.71,0,0,1-.69.66.69.69,0,0,1-.65-.65.66.66,0,0,1,.68-.65A.67.67,0,0,1,33.47,37.34Z"/></g></g></svg>