<svg width="209" height="468" viewBox="0 0 209 468" fill="none" xmlns="http://www.w3.org/2000/svg">
<clipPath id="archClip">
<path fill-rule="evenodd" clip-rule="evenodd" d="M1.50006 120.741V468H0.500061V120.72L0.500463 120.71L1.00006 120.73C0.500463 120.71 0.500535 120.708 0.500535 120.708L0.500721 120.704L0.501452 120.687L0.504461 120.62C0.507196 120.562 0.511447 120.475 0.517554 120.36C0.529767 120.131 0.549401 119.793 0.579172 119.352C0.638711 118.47 0.738798 117.179 0.901154 115.536C1.22585 112.252 1.79968 107.562 2.79655 101.935C4.78986 90.6841 8.4767 75.675 15.2528 60.6594C28.8093 30.6191 54.7669 0.499993 104.26 0.5C153.752 0.500007 179.83 30.6183 193.506 60.6579C200.343 75.6732 204.09 90.6823 206.128 101.933C207.148 107.56 207.74 112.25 208.078 115.534C208.247 117.177 208.352 118.468 208.415 119.35C208.447 119.791 208.468 120.129 208.481 120.358C208.488 120.473 208.492 120.56 208.495 120.618L208.498 120.685L208.499 120.702L208.499 120.706C208.499 120.706 209 133.478 208.5 133.5L208.5 120.708L208.5 120.719V468H207.5V120.742L207.5 120.732L207.496 120.669C207.494 120.612 207.489 120.528 207.483 120.415C207.47 120.191 207.449 119.857 207.418 119.421C207.356 118.549 207.251 117.268 207.083 115.637C206.748 112.374 206.158 107.71 205.144 102.112C203.115 90.9131 199.388 75.9895 192.596 61.0723C179.017 31.2468 153.225 1.50001 104.26 1.5C55.2958 1.49999 29.6235 31.246 16.1643 61.0708C9.43263 75.9878 5.76521 90.9112 3.78122 102.11C2.78943 107.708 2.21886 112.372 1.8963 115.635C1.73503 117.266 1.63579 118.547 1.5769 119.419C1.54746 119.855 1.5281 120.189 1.51613 120.413C1.51015 120.526 1.50601 120.61 1.50337 120.667L1.50051 120.73L1.50006 120.741Z" fill="black"/>
</clipPath>
</svg>
