<svg xmlns="http://www.w3.org/2000/svg" viewBox="0 0 257.04 177.42"><g id="Layer_2" data-name="Layer 2"><g id="Layer_2-2" data-name="Layer 2"><rect x="0.32" y="0.32" width="256.41" height="176.79" fill="#212441" stroke="#fff" stroke-miterlimit="10" stroke-width="0.63"/><path d="M92.24,58l7.68-7.91c3.62,3.79,7.19,7.4,10.6,11.15,1.65,1.83,2.94,2.41,5.33.88s5.39-2.32,8.43-3.56V40.3h10.08c0,5.29.1,10.48-.05,15.65-.06,2.17.52,3.19,2.72,3.83a88.3,88.3,0,0,1,8.71,3.52L158.43,50l7,8.07L152.85,69.9c1.58,4.06,2.82,7.49,4.3,10.82a3,3,0,0,0,2.31,1.17c5.41.1,10.82,0,16.48,0v9.91H158c-1.73,3.8-3.37,7.16-4.74,10.63-.23.6.48,1.83,1.08,2.45,3.78,3.87,7.65,7.65,11.57,11.54l-7.31,7.27c-3.8-3.93-7.59-7.76-11.25-11.71-1.27-1.37-2.23-1.55-3.87-.51a17.35,17.35,0,0,1-5.86,2.55c-2.9.53-3.43,2-3.3,4.64.21,4.29,0,8.59.07,12.89,0,1.72-.59,2.39-2.32,2.32-2.52-.1-5,0-7.84,0,0-5.76-.07-11.06,0-16.36,0-1.82-.51-2.69-2.35-3.19a21.46,21.46,0,0,1-6.47-2.67c-2.07-1.4-3.14-.78-4.58.76-3.48,3.74-7.11,7.34-10.93,11.25l-6.65-7.83,12.5-12c-1.72-4.09-3.25-7.73-5-11.76H82.64v-10h18.07l4.91-11.66Zm36.85,9.1a19.9,19.9,0,1,0,20.08,19.77A20,20,0,0,0,129.09,67.11Z" fill="#fff" stroke="#fff" stroke-miterlimit="10" stroke-width="0.61"/><path d="M129.09,67.11a19.9,19.9,0,1,1-19.68,20.16A20,20,0,0,1,129.09,67.11Z" fill="#212441" stroke="#fff" stroke-miterlimit="10" stroke-width="0.61"/></g></g></svg>