<svg id="Capa_1" enable-background="new 0 0 512 512" height="512" viewBox="0 0 512 512" width="512" xmlns="http://www.w3.org/2000/svg"><g><path d="m504.5 38.5h-497c-4.143 0-7.5 3.358-7.5 7.5v420c0 4.142 3.357 7.5 7.5 7.5h497c4.143 0 7.5-3.358 7.5-7.5v-420c0-4.142-3.357-7.5-7.5-7.5zm-7.5 420h-482v-405h482z"/><path d="m37.5 443.5h437c4.143 0 7.5-3.358 7.5-7.5v-360c0-4.142-3.357-7.5-7.5-7.5h-437c-4.143 0-7.5 3.358-7.5 7.5v360c0 4.142 3.357 7.5 7.5 7.5zm48.107-45h340.786l30 30h-400.786zm4.393-15v-255h332v255zm347 4.393v-263.786l30-30v323.786zm-10.607-274.393h-340.786l-30-30h400.786zm-351.393 10.607v263.786l-30 30v-323.786z"/><path d="m399.5 143.5h-287c-4.143 0-7.5 3.358-7.5 7.5v90c0 4.142 3.357 7.5 7.5 7.5s7.5-3.358 7.5-7.5v-82.5h272v195h-272v-82.5c0-4.142-3.357-7.5-7.5-7.5s-7.5 3.358-7.5 7.5v90c0 4.142 3.357 7.5 7.5 7.5h287c4.143 0 7.5-3.358 7.5-7.5v-210c0-4.142-3.357-7.5-7.5-7.5z"/><path d="m187.5 218.5h137c12.406 0 22.5-10.093 22.5-22.5s-10.094-22.5-22.5-22.5h-137c-12.406 0-22.5 10.093-22.5 22.5s10.094 22.5 22.5 22.5zm0-30h137c4.136 0 7.5 3.364 7.5 7.5s-3.364 7.5-7.5 7.5h-137c-4.136 0-7.5-3.364-7.5-7.5s3.364-7.5 7.5-7.5z"/><path d="m172.5 248.5h167c4.143 0 7.5-3.358 7.5-7.5s-3.357-7.5-7.5-7.5h-167c-4.143 0-7.5 3.358-7.5 7.5s3.357 7.5 7.5 7.5z"/><path d="m218.5 301c0 20.678 16.822 37.5 37.5 37.5s37.5-16.822 37.5-37.5-16.822-37.5-37.5-37.5-37.5 16.822-37.5 37.5zm60 0c0 12.407-10.094 22.5-22.5 22.5s-22.5-10.093-22.5-22.5 10.094-22.5 22.5-22.5 22.5 10.093 22.5 22.5z"/></g></svg>